<?xml version="1.0" standalone="no"?>
<!DOCTYPE svg PUBLIC "-//W3C//DTD SVG 20010904//EN"
 "http://www.w3.org/TR/2001/REC-SVG-20010904/DTD/svg10.dtd">
<svg version="1.0" xmlns="http://www.w3.org/2000/svg"
 width="517.000000pt" height="517.000000pt" viewBox="0 0 517.000000 517.000000"
 preserveAspectRatio="xMidYMid meet">
<metadata>
Created by potrace 1.11, written by Peter Selinger 2001-2013
</metadata>
<g transform="translate(0.000000,517.000000) scale(0.100000,-0.100000)"
fill="#000000" stroke="none">
<path d="M907 5164 c-1 -1 -38 -4 -82 -7 -107 -6 -202 -31 -303 -78 -126 -58
-199 -115 -329 -253 -42 -46 -115 -181 -144 -271 -49 -146 -48 -85 -47 -1981
0 -1724 0 -1783 19 -1864 85 -366 353 -625 717 -693 61 -12 380 -14 1865 -12
986 2 1806 5 1822 8 383 73 685 394 730 777 9 73 9 3509 0 3580 -50 418 -392
755 -797 786 -62 5 -3445 12 -3451 8z"/>
</g>
</svg>
